<svg xmlns="http://www.w3.org/2000/svg" width="380.582" height="325.321" viewBox="0 0 380.582 325.321">
  <g id="e0180_1" transform="matrix(0.966, 0.259, -0.259, 0.966, 49.564, -20.559)">
    <path id="パス_25" data-name="パス 25" d="M176.547,265.108a6.874,6.874,0,0,0,1.292-.123c15.241-2.835,24.023-18.656,27.726-28.724a58.311,58.311,0,0,0,8.008.575c18.383,0,31.73-9.164,38.1-14.67a47.6,47.6,0,0,0,20.062,4.315c16.1,0,32.892-7.972,43.87-20.834,8.481-9.9,12.528-21.656,11.452-32.834,19.847-13.684,22.516-33.861,18.082-48.778-4.262-14.3-15.025-24.861-27.338-27.533,1.292-7.726-.517-16.561-5.3-24.327a38.583,38.583,0,0,0-32.978-18.78A43.966,43.966,0,0,0,267.947,55c-2.928-10.4-9.816-19.684-19.933-26.67A73.979,73.979,0,0,0,206.6,16c-17.221,0-32.548,5.63-43.87,15.985a32.661,32.661,0,0,0-23.205-9.164,38.938,38.938,0,0,0-28.156,12.246,28.243,28.243,0,0,0-6.673,12.2,45.906,45.906,0,0,0-12.787-1.767c-17.221,0-34.786,9.451-44.775,24.081C40.2,79.777,37.875,91.16,40.458,101.762c-11.452,4.438-19.546,16.725-20.622,32.382-1.205,17.752,7.147,37.518,27.941,45.7-1.937,4.52-1.98,9.78,0,15.246,2.454,6.739,7.965,13.52,15.111,18.615,7.62,5.383,16.317,8.342,24.454,8.342A32.063,32.063,0,0,0,96,220.85a22.085,22.085,0,0,0,4.52,7.931,24.74,24.74,0,0,0,18.3,8.424,21.288,21.288,0,0,0,7.577-1.356c6.113,4.109,14.681,6.369,24.712,6.369a66.228,66.228,0,0,0,23.205-4.192,86.6,86.6,0,0,1-3.186,15.533c-1.205,4.233-1.851,6.575.258,9.2a6.749,6.749,0,0,0,5.166,2.342Z" transform="translate(0)" fill="#bcf9f9"/>
    <path id="パス_26" data-name="パス 26" d="M57.544,114.942C42.966,83.67,86.4,47.385,119.526,65.137,115.99,41.96,155.111,25.194,171.415,50.3c29.675-35.5,97.308-18.492,100.715,21.944,34.808-15.78,56.849,20.67,46.2,38.751,27.605-3.287,49,45.326,11.042,67.681,6.772,31.272-37.008,63.982-69.7,44.71-4.788,5.137-23.119,21.163-49.56,14.547-1.768,8.26-10.266,27.2-24.456,29.875-1.294.411,7.117-19.149,3.278-31.642-9.1,9.41-40.89,13.109-52.752,1.068-10.826,7.726-28.3-2.63-25.535-17.095C86.4,237.565,46.847,200.457,67.163,185.294,23.038,176.705,28.559,116.914,57.544,114.942Z" transform="translate(-9.111 -8.824)" fill="#bcf9f9"/>
  </g>
</svg>
