<svg xmlns="http://www.w3.org/2000/svg" width="509.011" height="435.102" viewBox="0 0 509.011 435.102">
  <g id="e0180_1" transform="matrix(0.966, 0.259, -0.259, 0.966, 71.321, -20.559)">
    <path id="パス_25" data-name="パス 25" d="M229.468,349.171a9.193,9.193,0,0,0,1.727-.165c20.384-3.792,32.13-24.952,37.082-38.417a77.987,77.987,0,0,0,10.71.769c24.587,0,42.437-12.256,50.959-19.621a63.657,63.657,0,0,0,26.833,5.771c21.535,0,43.992-10.662,58.675-27.865C426.8,256.4,432.21,240.679,430.77,225.729c26.545-18.3,30.115-45.287,24.184-65.238-5.7-19.126-20.1-33.251-36.564-36.824,1.727-10.333-.691-22.149-7.082-32.537A51.6,51.6,0,0,0,367.2,66.014a58.8,58.8,0,0,0-15.489,2.143c-3.915-13.905-13.128-26.326-26.66-35.669C309.39,21.826,289.813,16,269.659,16c-23.032,0-43.531,7.53-58.675,21.38a43.683,43.683,0,0,0-31.036-12.256c-14.107,0-28.5,6.266-37.658,16.378a37.774,37.774,0,0,0-8.925,16.323,61.4,61.4,0,0,0-17.1-2.363c-23.032,0-46.525,12.641-59.884,32.207C47.11,101.3,44,116.523,47.456,130.7c-15.316,5.936-26.142,22.369-27.581,43.309-1.612,23.743,9.558,50.179,37.37,61.116-2.591,6.046-2.649,13.081,0,20.39,3.282,9.014,10.652,18.082,20.211,24.9,10.192,7.2,21.823,11.157,32.706,11.157a42.882,42.882,0,0,0,11.574-1.594,29.538,29.538,0,0,0,6.046,10.607,33.089,33.089,0,0,0,24.472,11.267,28.472,28.472,0,0,0,10.134-1.814c8.176,5.5,19.635,8.519,33.051,8.519a88.577,88.577,0,0,0,31.036-5.606c-.633,7.8-2.937,15.993-4.261,20.775-1.612,5.661-2.476,8.794.346,12.311a9.026,9.026,0,0,0,6.91,3.133Z" transform="translate(0)" fill="#bcf9f9"/>
    <path id="パス_26" data-name="パス 26" d="M65.181,143.275c-19.5-41.825,38.593-90.355,82.9-66.612-4.73-31,47.593-53.422,69.4-19.841,39.69-47.486,130.145-24.732,134.7,29.349,46.554-21.1,76.033,27.645,61.784,51.828,36.921-4.4,65.534,60.621,14.768,90.52,9.057,41.825-49.5,85.574-93.224,59.8-6.4,6.87-30.921,28.3-66.284,19.456-2.365,11.047-13.73,36.384-32.709,39.956-1.731.55,9.519-25.612,4.384-42.32-12.172,12.586-54.689,17.532-70.553,1.429-14.48,10.333-37.844-3.517-34.152-22.864-32.421,23.3-85.321-26.326-58.15-46.607C19.03,225.881,26.414,145.913,65.181,143.275Z" transform="translate(-7.058 -6.747)" fill="#bcf9f9"/>
  </g>
</svg>
