<svg xmlns="http://www.w3.org/2000/svg" width="47.657" height="48.875" viewBox="0 0 47.657 48.875">
  <g id="肉球のアイコン3" transform="translate(0)">
    <path id="パス_28" data-name="パス 28" d="M172.644,14.612c3.01,1.1,6.625-1.215,8.074-5.175s.183-8.063-2.827-9.164-6.625,1.216-8.074,5.176S169.634,13.512,172.644,14.612Z" transform="translate(-153.673 0)" fill="#dccda6"/>
    <path id="パス_29" data-name="パス 29" d="M24.769,76.927c3.149-.273,5.41-3.851,5.053-7.995s-3.2-7.279-6.351-7.008-5.41,3.853-5.052,8S21.62,77.2,24.769,76.927Z" transform="translate(-17.235 -55.999)" fill="#dccda6"/>
    <path id="パス_30" data-name="パス 30" d="M318.906,87.058c2.764,1.624,6.735-.007,8.871-3.642s1.627-7.9-1.137-9.524-6.736.009-8.871,3.644S316.143,85.435,318.906,87.058Z" transform="translate(-286.85 -66.27)" fill="#dccda6"/>
    <path id="パス_31" data-name="パス 31" d="M372.148,243.09c-1.792-2.6-6.021-2.8-9.446-.448s-4.75,6.379-2.959,8.983,6.021,2.8,9.446.447S373.939,245.694,372.148,243.09Z" transform="translate(-325.289 -217.993)" fill="#dccda6"/>
    <path id="パス_32" data-name="パス 32" d="M34.84,208.29a7.28,7.28,0,0,0-11.054-5.217c-2.257,1.37-3.7,3.159-5.645,3.941s-7.389-1.547-10.778,4.609c-2.394,4.348-.2,9.845,4.292,11.962,3.412,1.61,6.112,1.43,8.094,2.365s3.56,3.134,6.971,4.744c4.488,2.118,10.128.321,11.962-4.292,2.6-6.53-2.663-9.252-3.3-11.25S35.218,210.9,34.84,208.29Z" transform="translate(-6.381 -182.702)" fill="#dccda6"/>
  </g>
</svg>
